<?xml version="1.0" encoding="UTF-8"?>
<svg id="Camada_1" xmlns="http://www.w3.org/2000/svg" version="1.1" viewBox="0 0 1080 1080">
  <!-- Generator: Adobe Illustrator 30.1.0, SVG Export Plug-In . SVG Version: 2.1.1 Build 136)  -->
  <defs>
    <style>
      .st0 {
        fill: #403e43;
      }

      .st1 {
        fill: #fff;
      }
    </style>
  </defs>
  <g>
    <path class="st1" d="M294.47,436.79c35.65,0,62.06,18.72,62.06,51.54s-26.41,52.06-62.06,52.06h-47.44v91.29h-20.26v-194.89h67.7ZM294.47,522.18c23.59,0,41.8-11.54,41.8-33.59s-18.21-33.59-41.8-33.59h-47.44v67.19h47.44Z"/>
    <path class="st1" d="M486.54,572.44h-108.47c1.8,28.46,23.34,45.39,45.13,45.39,17.95,0,34.11-6.92,43.08-27.18l17.44,4.1c-10,26.41-32.06,40.26-60.52,40.26-33.59,0-64.11-25.9-64.11-66.16s30.52-66.67,65.39-66.67,60.78,25.39,62.06,63.08v7.18ZM378.84,557.82h87.96c-3.59-24.87-21.28-38.47-42.31-38.47s-41.8,13.59-45.65,38.47Z"/>
    <path class="st1" d="M636.3,631.68h-19.49v-20c-11.28,14.87-29.23,23.34-50.26,23.34-33.59,0-63.08-26.41-63.08-66.42s29.49-66.42,63.08-66.42c21.03,0,38.98,8.46,50.26,23.34v-98.99h19.49v205.15ZM616.81,568.59c0-30.26-23.34-49.24-47.19-49.24-26.16,0-47.18,18.98-47.18,49.24s21.03,48.98,47.18,48.98c23.85,0,47.19-18.98,47.19-48.98Z"/>
  </g>
  <path class="st0" d="M660.07,433.65h43.01v198.1h-43.01v-198.1ZM812.55,496.99c-16.42,0-30.24,6-40.14,16.42v-12.51h-41.7v130.85h41.7v-60.73c0-25.28,10.69-36.49,27.11-36.49,13.29,0,22.42,10.43,22.42,25.8v71.42h41.44v-80.28c0-32.84-20.33-54.48-50.83-54.48Z"/>
</svg>