<?xml version="1.0" encoding="UTF-8"?>
<svg id="Camada_1" xmlns="http://www.w3.org/2000/svg" version="1.1" viewBox="0 0 1080 1080">
  <!-- Generator: Adobe Illustrator 30.1.0, SVG Export Plug-In . SVG Version: 2.1.1 Build 136)  -->
  <defs>
    <style>
      .st0 {
        fill: #403e43;
      }

      .st1 {
        fill: #fff;
      }
    </style>
  </defs>
  <g>
    <path class="st0" d="M183.23,351.77c45.33,0,78.92,23.81,78.92,65.55s-33.59,66.2-78.92,66.2h-60.33v116.1h-25.76v-247.85h86.09ZM183.23,460.37c30,0,53.16-14.67,53.16-42.72s-23.15-42.72-53.16-42.72h-60.33v85.44h60.33Z"/>
    <path class="st0" d="M427.49,524.29h-137.95c2.28,36.2,29.68,57.72,57.4,57.72,22.83,0,43.37-8.8,54.79-34.57l22.18,5.22c-12.72,33.59-40.76,51.2-76.96,51.2-42.72,0-81.53-32.94-81.53-84.14s38.81-84.79,83.16-84.79,77.29,32.29,78.92,80.22v9.13ZM290.52,505.7h111.86c-4.57-31.63-27.07-48.92-53.81-48.92s-53.16,17.28-58.05,48.92Z"/>
    <path class="st0" d="M617.94,599.62h-24.78v-25.44c-14.35,18.91-37.18,29.68-63.92,29.68-42.72,0-80.22-33.59-80.22-84.46s37.5-84.46,80.22-84.46c26.74,0,49.57,10.76,63.92,29.68v-125.88h24.78v260.89ZM593.16,519.39c0-38.48-29.68-62.61-60.01-62.61-33.26,0-60.01,24.13-60.01,62.61s26.74,62.29,60.01,62.29c30.33,0,60.01-24.13,60.01-62.29Z"/>
  </g>
  <g>
    <path class="st0" d="M107.71,623.99c6.18,0,9.88,3.51,9.88,8.45s-3.71,8.49-9.88,8.49h-5.71v12.39h-5.25v-29.34h10.96ZM107.71,636.19c3.05,0,4.67-1.62,4.67-3.74s-1.62-3.71-4.67-3.71h-5.71v7.45h5.71Z"/>
    <path class="st0" d="M147.47,653.33h-21.19v-29.34h21.04v4.79h-15.79v7.45h14.78v4.67h-14.78v7.68h15.94v4.75Z"/>
    <path class="st0" d="M169.28,623.99c9.38,0,15.63,5.87,15.63,14.67s-6.25,14.67-15.63,14.67h-11.97v-29.34h11.97ZM169.63,648.58c5.98,0,10-3.98,10-9.92s-4.01-9.92-10-9.92h-7.06v19.84h7.06Z"/>
    <path class="st0" d="M194.18,653.33v-29.34h5.25v29.34h-5.25Z"/>
    <path class="st0" d="M232.83,653.33l-2.55-5.75h-14.67l-2.59,5.75h-5.87l13.7-29.34h4.13l13.7,29.34h-5.87ZM222.94,631.13l-5.21,11.66h10.38l-5.17-11.66Z"/>
    <path class="st0" d="M254.87,628.74v24.59h-5.25v-24.59h-8.99v-4.75h23.24v4.75h-8.99Z"/>
    <path class="st0" d="M293.74,653.33l-11.43-12.39h-4.71v12.39h-5.25v-29.34h10.96c6.18,0,9.88,3.51,9.88,8.45,0,3.51-1.85,6.29-5.1,7.64l12.2,13.24h-6.56ZM283.32,636.19c3.05,0,4.67-1.62,4.67-3.74s-1.62-3.71-4.67-3.71h-5.71v7.45h5.71Z"/>
    <path class="st0" d="M307.26,653.33v-29.34h5.25v29.34h-5.25Z"/>
    <path class="st0" d="M345.9,653.33l-2.55-5.75h-14.67l-2.59,5.75h-5.87l13.7-29.34h4.13l13.7,29.34h-5.87ZM336.01,631.13l-5.21,11.66h10.38l-5.17-11.66Z"/>
    <path class="st0" d="M373.5,653.33v-29.34h5.25v29.34h-5.25Z"/>
    <path class="st0" d="M416.62,653.33h-3.63l-18.57-19.8v19.8h-5.25v-29.34h3.63l18.57,20.19v-20.19h5.25v29.34Z"/>
    <path class="st0" d="M439.35,628.74v24.59h-5.25v-24.59h-8.99v-4.75h23.24v4.75h-8.99Z"/>
    <path class="st0" d="M478.04,653.33h-21.19v-29.34h21.04v4.79h-15.79v7.45h14.78v4.67h-14.78v7.68h15.94v4.75Z"/>
    <path class="st0" d="M515.33,653.33h-3.63l-18.57-19.8v19.8h-5.25v-29.34h3.63l18.57,20.19v-20.19h5.25v29.34Z"/>
    <path class="st0" d="M546.94,631.75l-5.37,1.12c-.5-2.97-2.82-4.79-5.79-4.79-2.43,0-4.67,1.2-4.67,3.86,0,1.58.81,2.59,3.05,3.24l6.76,1.93c4.01,1.16,6.45,3.51,6.45,7.95,0,5.6-4.48,8.84-10.85,8.84-5.87,0-11-2.74-11.73-8.65l5.64-1.12c.7,3.51,3.17,5.1,6.56,5.1s5.1-1.51,5.1-3.98c0-1.81-.96-2.82-3.47-3.47l-5.79-1.54c-3.16-.85-7.33-2.7-7.33-8.11s4.05-8.72,10.27-8.72,10.07,3.13,11.19,8.34Z"/>
    <path class="st0" d="M557.02,653.33v-29.34h5.25v29.34h-5.25Z"/>
    <path class="st0" d="M587.36,653.33h-3.51l-13.47-29.34h5.79l9.42,20.73,9.46-20.73h5.79l-13.47,29.34Z"/>
    <path class="st0" d="M627.28,653.33l-2.55-5.75h-14.67l-2.59,5.75h-5.87l13.7-29.34h4.13l13.7,29.34h-5.87ZM617.39,631.13l-5.21,11.66h10.38l-5.17-11.66Z"/>
  </g>
  <path class="st1" d="M726.32,397.22h38.9v179.18h-38.9v-179.18ZM864.24,454.51c-14.85,0-27.35,5.42-36.31,14.85v-11.32h-37.72v118.35h37.72v-54.93c0-22.87,9.67-33.01,24.52-33.01,12.02,0,20.28,9.43,20.28,23.34v64.6h37.49v-72.62c0-29.71-18.39-49.28-45.97-49.28Z"/>
</svg>