<?xml version="1.0" encoding="UTF-8"?>
<svg id="Camada_1" xmlns="http://www.w3.org/2000/svg" version="1.1" viewBox="0 0 1080 1080">
  <!-- Generator: Adobe Illustrator 30.1.0, SVG Export Plug-In . SVG Version: 2.1.1 Build 136)  -->
  <defs>
    <style>
      .st0 {
        fill: #403e43;
      }
    </style>
  </defs>
  <g>
    <path class="st0" d="M204.65,352.56c47.94,0,83.47,25.18,83.47,69.33s-35.53,70.02-83.47,70.02h-63.81v122.79h-27.25v-262.14h91.06ZM204.65,467.42c31.73,0,56.22-15.52,56.22-45.18s-24.49-45.18-56.22-45.18h-63.81v90.37h63.81Z"/>
    <path class="st0" d="M462.99,535.02h-145.9c2.41,38.29,31.39,61.05,60.71,61.05,24.14,0,45.87-9.31,57.95-36.56l23.45,5.52c-13.45,35.53-43.11,54.15-81.4,54.15-45.18,0-86.23-34.84-86.23-88.99s41.04-89.68,87.95-89.68,81.74,34.15,83.47,84.85v9.66ZM318.13,515.36h118.31c-4.83-33.46-28.63-51.74-56.91-51.74s-56.22,18.28-61.39,51.74Z"/>
    <path class="st0" d="M664.42,614.7h-26.21v-26.9c-15.18,20-39.32,31.39-67.6,31.39-45.18,0-84.85-35.53-84.85-89.33s39.66-89.33,84.85-89.33c28.28,0,52.43,11.38,67.6,31.39v-133.14h26.21v275.93ZM638.21,529.85c0-40.7-31.39-66.22-63.46-66.22-35.18,0-63.47,25.52-63.47,66.22s28.28,65.88,63.47,65.88c32.08,0,63.46-25.52,63.46-65.88Z"/>
  </g>
  <g>
    <path class="st0" d="M130.78,672.82c9.92,0,15.87,5.64,15.87,13.57s-5.95,13.64-15.87,13.64h-9.17v19.89h-8.43v-47.1h17.6ZM130.78,692.4c4.9,0,7.5-2.6,7.5-6.01s-2.6-5.95-7.5-5.95h-9.17v11.96h9.17Z"/>
    <path class="st0" d="M194.62,719.92h-34.03v-47.1h33.78v7.69h-25.35v11.96h23.74v7.5h-23.74v12.33h25.6v7.62Z"/>
    <path class="st0" d="M229.64,672.82c15.06,0,25.1,9.42,25.1,23.55s-10.04,23.55-25.1,23.55h-19.21v-47.1h19.21ZM230.19,712.3c9.61,0,16.05-6.38,16.05-15.93s-6.45-15.93-16.05-15.93h-11.34v31.86h11.34Z"/>
    <path class="st0" d="M269.61,719.92v-47.1h8.43v47.1h-8.43Z"/>
    <path class="st0" d="M331.65,719.92l-4.09-9.23h-23.55l-4.15,9.23h-9.42l22-47.1h6.63l22,47.1h-9.42ZM315.78,684.28l-8.37,18.72h16.67l-8.31-18.72Z"/>
    <path class="st0" d="M367.04,680.44v39.48h-8.43v-39.48h-14.44v-7.62h37.31v7.62h-14.44Z"/>
    <path class="st0" d="M429.45,719.92l-18.35-19.89h-7.56v19.89h-8.43v-47.1h17.6c9.92,0,15.87,5.64,15.87,13.57,0,5.64-2.98,10.1-8.18,12.27l19.58,21.26h-10.54ZM412.72,692.4c4.9,0,7.5-2.6,7.5-6.01s-2.6-5.95-7.5-5.95h-9.17v11.96h9.17Z"/>
    <path class="st0" d="M451.14,719.92v-47.1h8.43v47.1h-8.43Z"/>
    <path class="st0" d="M513.18,719.92l-4.09-9.23h-23.55l-4.15,9.23h-9.42l22-47.1h6.63l22,47.1h-9.42ZM497.32,684.28l-8.37,18.72h16.67l-8.31-18.72Z"/>
    <path class="st0" d="M557.5,719.92v-47.1h8.43v47.1h-8.43Z"/>
    <path class="st0" d="M626.72,719.92h-5.83l-29.81-31.79v31.79h-8.43v-47.1h5.83l29.81,32.41v-32.41h8.43v47.1Z"/>
    <path class="st0" d="M663.23,680.44v39.48h-8.43v-39.48h-14.44v-7.62h37.31v7.62h-14.44Z"/>
    <path class="st0" d="M725.33,719.92h-34.03v-47.1h33.78v7.69h-25.35v11.96h23.74v7.5h-23.74v12.33h25.6v7.62Z"/>
    <path class="st0" d="M785.2,719.92h-5.83l-29.81-31.79v31.79h-8.43v-47.1h5.83l29.81,32.41v-32.41h8.43v47.1Z"/>
    <path class="st0" d="M835.96,685.27l-8.62,1.8c-.8-4.77-4.52-7.69-9.3-7.69-3.9,0-7.5,1.92-7.5,6.2,0,2.54,1.3,4.15,4.9,5.21l10.85,3.1c6.45,1.86,10.35,5.64,10.35,12.77,0,8.99-7.19,14.19-17.41,14.19-9.42,0-17.66-4.4-18.84-13.88l9.05-1.8c1.12,5.64,5.08,8.18,10.54,8.18s8.18-2.42,8.18-6.38c0-2.91-1.55-4.52-5.58-5.58l-9.3-2.48c-5.08-1.36-11.78-4.34-11.78-13.01s6.51-14.01,16.49-14.01,16.18,5.02,17.97,13.39Z"/>
    <path class="st0" d="M852.14,719.92v-47.1h8.43v47.1h-8.43Z"/>
    <path class="st0" d="M900.85,719.92h-5.64l-21.63-47.1h9.3l15.12,33.28,15.18-33.28h9.3l-21.63,47.1Z"/>
    <path class="st0" d="M964.94,719.92l-4.09-9.23h-23.55l-4.15,9.23h-9.42l22-47.1h6.63l22,47.1h-9.42ZM949.07,684.28l-8.37,18.72h16.67l-8.31-18.72Z"/>
  </g>
  <rect class="st0" x="111.78" y="640.43" width="859.7" height="4.86"/>
</svg>